<?xml version="1.0" encoding="UTF-8"?><svg id="Livello_1" xmlns="http://www.w3.org/2000/svg" viewBox="0 0 300 200"><polygon points="140.51512 91.56804 140.51512 158.10482 45.40722 158.10482 45.40722 62.99692 111.80021 62.99692 140.51512 91.56804" fill="#ffec99"/><path d="M112.07031,62.72529l-.1123-.1123H45.02344v95.87598h95.875v-67.08008l-28.82812-28.68359ZM45.79102,157.72138V63.38056h65.625v28.57129h28.71484v65.76953H45.79102Z" fill="#f0de90"/><path d="M203.52148,92.96635c.06616,0,.13232-.00452.19873-.01367l13.64941-1.65448c.08911-.01056.16968-.05011.25537-.07483.07251-.02087.14453-.03186.21436-.06287.18506-.08197.35815-.18982.50366-.33533l16.43945-16.43726,1.7002-1.70013c3.95093-3.95337,3.95093-10.38837,0-14.34174-3.95337-3.95337-10.38843-3.95337-14.3418,0l-1.7002,1.7002-16.43726,16.43951c-.14526.14539-.25317.31818-.33496.5033-.03125.07013-.04199.14221-.06299.21509-.0249.08551-.06445.16595-.07495.25507l-1.65454,13.64935c-.06152.505.11206,1.01001.47314,1.37109.31299.31305.73584.48669,1.17236.48669ZM224.48535,60.69065c2.66016-2.65997,6.99268-2.65997,9.65283,0,2.65747,2.66223,2.65747,6.9903,0,9.65253l-.52808.52789-4.77808-4.77832-4.87451-4.87427.52783-.52783ZM221.61304,63.56309l4.87207,4.87201.0022.00226,4.77832,4.77832-14.09497,14.09259-9.65015-9.65027,14.09253-14.09491ZM206.41187,81.23875l7.17798,7.17798-8.16724.98938.98926-8.16736Z"/><path d="M253.30664,133.50217c-5.11719-8.10938-15.96973-14.6543-27.64844-16.6748-10.45898-1.80859-20.49902.17969-28.52246,5.56445-.29297-8.11523,1.09863-16.2666,3.65234-22.80762.28418-.72949-.07617-1.55078-.80469-1.83594-.72852-.28418-1.55078.0752-1.83594.80469-2.93945,7.5293-4.43066,16.79199-3.81934,25.86523-15.64941,11.20117-20.45605,24.79199-14.28516,40.40527.2207.55762.75391.89746,1.31836.89746.17383,0,.34961-.03223.52051-.09961.72852-.28809,1.08496-1.11133.79785-1.83887-5.44531-13.77734-1.43848-25.88867,11.96484-36.0752,1.04395,8.31543,3.95117,16.27051,9.23633,22.35254,7.72559,9.31641,21.03125,13.42285,33.06543,10.22949,7.55469-1.69434,16.63574-7.5791,18.57129-15.10156,1.11914-3.81543.34766-7.86719-2.21094-11.68555ZM252.78418,144.43577c-1.58496,6.15918-9.77734,11.58887-16.51172,13.10059-11.03906,2.92773-23.17773-.80469-30.23047-9.31055-5.19531-5.97852-7.89551-14.10449-8.69043-22.51367,7.67285-5.71191,17.51465-7.87695,27.82422-6.09082,10.92383,1.88867,21.02539,7.93164,25.75488,15.42676,1.46191,2.18164,2.97168,5.57422,1.85352,9.3877Z"/></svg>