<?xml version="1.0" encoding="UTF-8"?><svg id="Livello_1" xmlns="http://www.w3.org/2000/svg" viewBox="0 0 300 200"><polyline points="161.31028 169.54671 150 142.55889 138.68972 169.54671" fill="none" stroke="#dadada" stroke-miterlimit="10" stroke-width=".74256"/><polyline points="74.16981 57.79521 103.19722 61.49438 85.4801 38.20523" fill="none" stroke="#dadada" stroke-miterlimit="10" stroke-width=".74256"/><polyline points="225.83019 57.79521 196.80278 61.49438 214.5199 38.20523" fill="none" stroke="#dadada" stroke-miterlimit="10" stroke-width=".74256"/><g id="_Ripetizione_radiale_"><line x1="150" y1="102.02344" x2="150" y2="142.617" fill="#9d9d9c" stroke="#dadada" stroke-miterlimit="10" stroke-width=".74256"/></g><g id="_Ripetizione_radiale_-2"><line x1="138.30167" y1="95.26972" x2="103.14661" y2="115.5665" fill="#9d9d9c" stroke="#dadada" stroke-miterlimit="10" stroke-width=".74256"/></g><g id="_Ripetizione_radiale_-3"><line x1="138.30142" y1="81.76186" x2="103.14637" y2="61.46508" fill="#9d9d9c" stroke="#dadada" stroke-miterlimit="10" stroke-width=".74256"/></g><g id="_Ripetizione_radiale_-4"><line x1="150" y1="75.00773" x2="150" y2="34.41417" fill="#9d9d9c" stroke="#dadada" stroke-miterlimit="10" stroke-width=".74256"/></g><g id="_Ripetizione_radiale_-5"><line x1="161.69882" y1="81.76169" x2="196.85388" y2="61.46491" fill="#9d9d9c" stroke="#dadada" stroke-miterlimit="10" stroke-width=".74256"/></g><g id="_Ripetizione_radiale_-6"><line x1="161.69785" y1="95.26979" x2="196.8529" y2="115.56657" fill="#9d9d9c" stroke="#dadada" stroke-miterlimit="10" stroke-width=".74256"/></g><circle cx="150" cy="88.51592" r="32.83259" fill="#b0c5e2"/><g id="_Ripetizione_radiale_-7"><path d="M140.33812,142.55889c0-5.33592,4.32562-9.66154,9.66154-9.66154,5.33592,0,9.66154,4.32562,9.66154,9.66154s-4.32562,9.66154-9.66154,9.66154c-5.33592,0-9.66154-4.32562-9.66154-9.66154Z" fill="#ffe2c5"/></g><g id="_Ripetizione_radiale_-8"><circle cx="103.19779" cy="115.53663" r="9.66154" fill="#ffe2c5"/></g><g id="_Ripetizione_radiale_-9"><circle cx="103.19722" cy="61.49438" r="9.66154" fill="#ffe2c5"/></g><g id="_Ripetizione_radiale_-10"><path d="M159.66188,34.47255c0,5.33592-4.32562,9.66154-9.66154,9.66154-5.33592,0-9.66154-4.32562-9.66154-9.66154s4.32562-9.66154,9.66154-9.66154c5.33592,0,9.66154,4.32562,9.66154,9.66154Z" fill="#ffe2c5"/></g><g id="_Ripetizione_radiale_-11"><circle cx="196.80133" cy="61.49451" r="9.66154" fill="#ffe2c5"/></g><g id="_Ripetizione_radiale_-12"><circle cx="196.8028" cy="115.53754" r="9.66154" fill="#ffe2c5"/></g><g id="_Ripetizione_radiale_-13"><circle cx="138.68972" cy="169.54671" r="5.64228" fill="#db3a34"/><circle cx="161.31028" cy="169.54671" r="5.64228" fill="#0c6"/></g><circle cx="85.4801" cy="38.20523" r="5.64228" fill="#db3a34"/><circle cx="74.16981" cy="57.79521" r="5.64228" fill="#0c6"/><g id="_Ripetizione_radiale_-14"><circle cx="225.83019" cy="57.79537" r="5.64228" fill="#db3a34"/><circle cx="214.5199" cy="38.20538" r="5.64228" fill="#0c6"/></g></svg>