<?xml version="1.0" encoding="UTF-8"?><svg id="Livello_1" xmlns="http://www.w3.org/2000/svg" viewBox="0 0 300 200"><polyline points="62.07956 31.29296 74.16981 42.85921 50.51332 42.85921" fill="none" stroke="#dadada" stroke-dasharray="3.42682 1.71341" stroke-miterlimit="10" stroke-width=".8567"/><line x1="62.07956" y1="54.42545" x2="74.16981" y2="42.85921" fill="none" stroke="#dadada" stroke-dasharray="3.42682 1.71341" stroke-miterlimit="10" stroke-width=".8567"/><path d="M62.07956,27.15992l2.38644,4.13305-2.38644,4.13305-2.38644-4.13305,2.38644-4.13305Z" fill="#069da8"/><path d="M62.07956,50.2924l2.38644,4.13305-2.38644,4.13305-2.38644-4.13305,2.38644-4.13305Z" fill="#069da8"/><path d="M50.51332,38.72616l2.38644,4.13305-2.38644,4.13305-2.38644-4.13305,2.38644-4.13305Z" fill="#069da8"/><polyline points="237.92044 54.42545 225.83019 42.85921 249.48668 42.85921" fill="none" stroke="#dadada" stroke-dasharray="3.42682 1.71341" stroke-miterlimit="10" stroke-width=".8567"/><line x1="237.92044" y1="31.29296" x2="225.83019" y2="42.85921" fill="none" stroke="#dadada" stroke-dasharray="3.42682 1.71341" stroke-miterlimit="10" stroke-width=".8567"/><path d="M237.92044,58.5585l-2.38644-4.13305,2.38644-4.13305,2.38644,4.13305-2.38644,4.13305Z" fill="#069da8"/><path d="M237.92044,35.42601l-2.38644-4.13305,2.38644-4.13305,2.38644,4.13305-2.38644,4.13305Z" fill="#069da8"/><path d="M249.48668,46.99226l-2.38644-4.13305,2.38644-4.13305,2.38644,4.13305-2.38644,4.13305Z" fill="#069da8"/><polyline points="161.31028 154.6107 118.43176 174.4257 138.68972 154.6107 150 185.99195 161.56624 154.6107" fill="none" stroke="#dadada" stroke-dasharray="3.42682 1.71341" stroke-width=".85663"/><polyline points="138.68972 154.6107 181.56824 174.42571 161.31028 154.6107" fill="none" stroke="#dadada" stroke-dasharray="3.42682 1.71341" stroke-width=".85663"/><path d="M118.43176,170.29266l2.38644,4.13305-2.38644,4.13305-2.38644-4.13305,2.38644-4.13305Z" fill="#069da8"/><path d="M181.56824,170.29266l2.38644,4.13305-2.38644,4.13305-2.38644-4.13305,2.38644-4.13305Z" fill="#069da8"/><path d="M150,181.8589l2.38644,4.13305-2.38644,4.13305-2.38644-4.13305,2.38644-4.13305Z" fill="#069da8"/><polyline points="161.31028 154.6107 150 127.62288 138.68972 154.6107" fill="none" stroke="#9d9d9c" stroke-miterlimit="10" stroke-width=".74256"/><polyline points="74.16981 42.85921 103.19722 46.55837 85.4801 23.26922" fill="none" stroke="#9d9d9c" stroke-miterlimit="10" stroke-width=".74256"/><polyline points="225.83019 42.85921 196.80278 46.55837 214.5199 23.26922" fill="none" stroke="#9d9d9c" stroke-miterlimit="10" stroke-width=".74256"/><g id="_Ripetizione_radiale_"><line x1="150" y1="87.08835" x2="150" y2="127.68191" fill="#9d9d9c" stroke="#9d9d9c" stroke-miterlimit="10" stroke-width=".74256"/></g><g id="_Ripetizione_radiale_-2"><line x1="138.30128" y1="80.33498" x2="103.14622" y2="100.63176" fill="#9d9d9c" stroke="#9d9d9c" stroke-miterlimit="10" stroke-width=".74256"/></g><g id="_Ripetizione_radiale_-3"><line x1="138.30152" y1="66.82569" x2="103.14647" y2="46.52891" fill="#9d9d9c" stroke="#9d9d9c" stroke-miterlimit="10" stroke-width=".74256"/></g><g id="_Ripetizione_radiale_-4"><line x1="150" y1="60.07172" x2="150" y2="19.47816" fill="#9d9d9c" stroke="#9d9d9c" stroke-miterlimit="10" stroke-width=".74256"/></g><g id="_Ripetizione_radiale_-5"><line x1="161.69824" y1="66.82558" x2="196.85329" y2="46.5288" fill="#9d9d9c" stroke="#9d9d9c" stroke-miterlimit="10" stroke-width=".74256"/></g><g id="_Ripetizione_radiale_-6"><line x1="161.69921" y1="80.33389" x2="196.85427" y2="100.63067" fill="#9d9d9c" stroke="#9d9d9c" stroke-miterlimit="10" stroke-width=".74256"/></g><circle cx="150" cy="73.57991" r="32.83259" fill="#345995"/><g id="_Ripetizione_radiale_-7"><path d="M140.33812,127.62288c0-5.33592,4.32562-9.66154,9.66154-9.66154,5.33592,0,9.66154,4.32562,9.66154,9.66154,0,5.33592-4.32562,9.66154-9.66154,9.66154-5.33592,0-9.66154-4.32562-9.66154-9.66154Z" fill="#f49d37"/></g><g id="_Ripetizione_radiale_-8"><circle cx="103.19779" cy="100.60062" r="9.66154" fill="#f49d37"/></g><g id="_Ripetizione_radiale_-9"><circle cx="103.19722" cy="46.55837" r="9.66154" fill="#f49d37"/></g><g id="_Ripetizione_radiale_-10"><path d="M159.66188,19.53654c0,5.33592-4.32562,9.66154-9.66154,9.66154-5.33592,0-9.66154-4.32562-9.66154-9.66154,0-5.33592,4.32562-9.66154,9.66154-9.66154,5.33592,0,9.66154,4.32562,9.66154,9.66154Z" fill="#f49d37"/></g><g id="_Ripetizione_radiale_-11"><circle cx="196.80133" cy="46.55851" r="9.66154" fill="#f49d37"/></g><g id="_Ripetizione_radiale_-12"><circle cx="196.8028" cy="100.60153" r="9.66154" fill="#f49d37"/></g><g id="_Ripetizione_radiale_-13"><circle cx="138.68972" cy="154.6107" r="5.64228" fill="#db3a34"/><circle cx="161.31028" cy="154.6107" r="5.64228" fill="#0c6"/></g><circle cx="85.4801" cy="23.26922" r="5.64228" fill="#db3a34"/><circle cx="74.16981" cy="42.85921" r="5.64228" fill="#0c6"/><g id="_Ripetizione_radiale_-14"><circle cx="225.83019" cy="42.85936" r="5.64228" fill="#db3a34"/><circle cx="214.5199" cy="23.26938" r="5.64228" fill="#0c6"/></g></svg>