<?xml version="1.0" encoding="UTF-8"?><svg id="Livello_1" xmlns="http://www.w3.org/2000/svg" viewBox="0 0 300 200"><defs><style>.cls-1{fill:#b38cb4;}.cls-2{fill:#f49d37;}.cls-3,.cls-4{stroke:#9d9d9c;stroke-width:.74256px;}.cls-3,.cls-4,.cls-5{stroke-miterlimit:10;}.cls-3,.cls-5,.cls-6{fill:none;}.cls-7{fill:#db3a34;}.cls-4{fill:#9d9d9c;}.cls-8{fill:#3f88c5;}.cls-5{stroke-width:.8567px;}.cls-5,.cls-6{stroke:#dadada;stroke-dasharray:3.42682 1.71341;}.cls-9{fill:#0c6;}.cls-6{stroke-width:.85663px;}</style></defs><polyline class="cls-5" points="62.07956 31.29296 74.16981 42.85921 50.51332 42.85921"/><line class="cls-5" x1="62.07956" y1="54.42545" x2="74.16981" y2="42.85921"/><path class="cls-1" d="M62.07956,27.15992l2.38644,4.13305-2.38644,4.13305-2.38644-4.13305,2.38644-4.13305Z"/><path class="cls-1" d="M62.07956,50.2924l2.38644,4.13305-2.38644,4.13305-2.38644-4.13305,2.38644-4.13305Z"/><path class="cls-1" d="M50.51332,38.72616l2.38644,4.13305-2.38644,4.13305-2.38644-4.13305,2.38644-4.13305Z"/><polyline class="cls-5" points="237.92044 54.42545 225.83019 42.85921 249.48668 42.85921"/><line class="cls-5" x1="237.92044" y1="31.29296" x2="225.83019" y2="42.85921"/><path class="cls-1" d="M237.92044,58.5585l-2.38644-4.13305,2.38644-4.13305,2.38644,4.13305-2.38644,4.13305Z"/><path class="cls-1" d="M237.92044,35.42601l-2.38644-4.13305,2.38644-4.13305,2.38644,4.13305-2.38644,4.13305Z"/><path class="cls-1" d="M249.48668,46.99226l-2.38644-4.13305,2.38644-4.13305,2.38644,4.13305-2.38644,4.13305Z"/><polyline class="cls-6" points="161.31028 154.6107 118.43176 174.4257 138.68972 154.6107 150 185.99195 161.56624 154.6107"/><polyline class="cls-6" points="138.68972 154.6107 181.56824 174.42571 161.31028 154.6107"/><path class="cls-1" d="M118.43176,170.29266l2.38644,4.13305-2.38644,4.13305-2.38644-4.13305,2.38644-4.13305Z"/><path class="cls-1" d="M181.56824,170.29266l2.38644,4.13305-2.38644,4.13305-2.38644-4.13305,2.38644-4.13305Z"/><path class="cls-1" d="M150,181.8589l2.38644,4.13305-2.38644,4.13305-2.38644-4.13305,2.38644-4.13305Z"/><polyline class="cls-3" points="161.31028 154.6107 150 127.62288 138.68972 154.6107"/><polyline class="cls-3" points="74.16981 42.85921 103.19722 46.55837 85.4801 23.26922"/><polyline class="cls-3" points="225.83019 42.85921 196.80278 46.55837 214.5199 23.26922"/><g id="_Ripetizione_radiale_"><line class="cls-4" x1="150" y1="87.08835" x2="150" y2="127.68191"/></g><g id="_Ripetizione_radiale_-2"><line class="cls-4" x1="138.30128" y1="80.33498" x2="103.14622" y2="100.63176"/></g><g id="_Ripetizione_radiale_-3"><line class="cls-4" x1="138.30152" y1="66.82569" x2="103.14647" y2="46.52891"/></g><g id="_Ripetizione_radiale_-4"><line class="cls-4" x1="150" y1="60.07172" x2="150" y2="19.47816"/></g><g id="_Ripetizione_radiale_-5"><line class="cls-4" x1="161.69824" y1="66.82558" x2="196.85329" y2="46.5288"/></g><g id="_Ripetizione_radiale_-6"><line class="cls-4" x1="161.69921" y1="80.33389" x2="196.85427" y2="100.63067"/></g><circle class="cls-8" cx="150" cy="73.57991" r="32.83259"/><g id="_Ripetizione_radiale_-7"><path class="cls-2" d="M140.33812,127.62288c0-5.33592,4.32562-9.66154,9.66154-9.66154,5.33592,0,9.66154,4.32562,9.66154,9.66154,0,5.33592-4.32562,9.66154-9.66154,9.66154-5.33592,0-9.66154-4.32562-9.66154-9.66154Z"/></g><g id="_Ripetizione_radiale_-8"><circle class="cls-2" cx="103.19779" cy="100.60062" r="9.66154"/></g><g id="_Ripetizione_radiale_-9"><circle class="cls-2" cx="103.19722" cy="46.55837" r="9.66154"/></g><g id="_Ripetizione_radiale_-10"><path class="cls-2" d="M159.66188,19.53654c0,5.33592-4.32562,9.66154-9.66154,9.66154-5.33592,0-9.66154-4.32562-9.66154-9.66154,0-5.33592,4.32562-9.66154,9.66154-9.66154,5.33592,0,9.66154,4.32562,9.66154,9.66154Z"/></g><g id="_Ripetizione_radiale_-11"><circle class="cls-2" cx="196.80133" cy="46.55851" r="9.66154"/></g><g id="_Ripetizione_radiale_-12"><circle class="cls-2" cx="196.8028" cy="100.60153" r="9.66154"/></g><g id="_Ripetizione_radiale_-13"><circle class="cls-7" cx="138.68972" cy="154.6107" r="5.64228"/><circle class="cls-9" cx="161.31028" cy="154.6107" r="5.64228"/></g><circle class="cls-7" cx="85.4801" cy="23.26922" r="5.64228"/><circle class="cls-9" cx="74.16981" cy="42.85921" r="5.64228"/><g id="_Ripetizione_radiale_-14"><circle class="cls-7" cx="225.83019" cy="42.85936" r="5.64228"/><circle class="cls-9" cx="214.5199" cy="23.26938" r="5.64228"/></g></svg>