<?xml version="1.0" encoding="UTF-8"?><svg id="Livello_1" xmlns="http://www.w3.org/2000/svg" viewBox="0 0 300 200"><path d="M89.47826,112.04005c0,8.93261-7.24131,16.17391-16.17391,16.17391s-16.17391-7.24131-16.17391-16.17391,7.24131-16.17391,16.17391-16.17391,16.17391,7.24131,16.17391,16.17391" fill="#f49d37"/><polygon points="23.05762 148.37109 22.0498 148.37109 22.0498 156.77148 27.4502 156.77148 27.4502 155.83594 23.05762 155.83594 23.05762 148.37109"/><path d="M33.49121,151.01172c-.45215-.24023-.94141-.36035-1.46973-.36035s-1.01758.12012-1.46973.36035-.81836.58984-1.09863,1.0498c-.2793.45996-.41992,1.01367-.41992,1.66211v.14355c0,.65625.14062,1.21191.41992,1.66797.28027.45605.64648.80469,1.09863,1.04395.45215.24023.94141.36035,1.46973.36035s1.01758-.12012,1.46973-.36035c.45215-.23926.81836-.58789,1.09863-1.04395.2793-.45605.41992-1.01172.41992-1.66797v-.14355c0-.64844-.14062-1.20215-.41992-1.66211-.28027-.45996-.64648-.80957-1.09863-1.0498ZM34.0498,153.86719c0,.44824-.08984.83594-.27051,1.16406-.17969.32812-.42188.58008-.72559.75586-.30469.17676-.64844.26465-1.03223.26465-.37598,0-.71777-.08789-1.02539-.26465-.30859-.17578-.55273-.42773-.73242-.75586s-.27051-.71582-.27051-1.16406v-.14355c0-.43262.09082-.8125.27051-1.14062.17969-.32715.42383-.58301.73242-.76758.30762-.18359.64941-.27637,1.02539-.27637s.71777.09277,1.02637.27637c.30762.18457.55176.44043.73145.76758.18066.32812.27051.70801.27051,1.14062v.14355Z"/><polygon points="41.06934 156.33984 40.92578 156.33984 40.22949 150.81934 38.50098 150.81934 37.80566 156.33984 37.66113 156.33984 36.86914 150.81934 35.90918 150.81934 36.8457 156.77148 38.57324 156.77148 39.29297 151.25195 39.4375 151.25195 40.15723 156.77148 41.88574 156.77148 42.82129 150.81934 41.86133 150.81934 41.06934 156.33984"/><path d="M55.77539,155.21777c-.14746.24414-.35547.44336-.62402.59961-.26758.15625-.59766.23438-.98926.23438-.39258,0-.74805-.08594-1.06836-.25781-.32031-.17285-.57422-.4209-.76172-.74414-.18848-.32422-.28223-.70996-.28223-1.1582v-.14453c0-.43164.09375-.81348.28223-1.14551.1875-.33203.43945-.5918.75586-.78027.31543-.1875.66602-.28223,1.0498-.28223.3916,0,.72168.07617.99023.22852.26758.15234.47754.34961.62988.59375s.24414.50586.27637.78613l.93555-.21582c-.07227-.44043-.23438-.83203-.48633-1.17578-.25195-.34473-.5752-.61426-.97168-.81055-.39551-.19531-.8457-.29395-1.34961-.29395-.55273,0-1.06055.12402-1.52441.37207s-.83789.60449-1.12207,1.06836-.42578,1.01562-.42578,1.65527v.14453c0,.64746.1416,1.2002.42578,1.65625s.6582.80176,1.12207,1.03809c.46387.23535.97168.35352,1.52441.35352.51953,0,.97754-.09766,1.37402-.29395.39551-.19629.71777-.46582.96582-.80957.24805-.34473.41211-.73633.49219-1.17676l-.93652-.21582c-.04004.27246-.13379.53027-.28223.77441Z"/><path d="M62.86719,151.01172c-.45215-.24023-.94141-.36035-1.46973-.36035s-1.01758.12012-1.46973.36035-.81836.58984-1.09863,1.0498c-.2793.45996-.41992,1.01367-.41992,1.66211v.14355c0,.65625.14062,1.21191.41992,1.66797.28027.45605.64648.80469,1.09863,1.04395.45215.24023.94141.36035,1.46973.36035s1.01758-.12012,1.46973-.36035c.45215-.23926.81836-.58789,1.09863-1.04395.2793-.45605.41992-1.01172.41992-1.66797v-.14355c0-.64844-.14062-1.20215-.41992-1.66211-.28027-.45996-.64648-.80957-1.09863-1.0498ZM63.42578,153.86719c0,.44824-.08984.83594-.27051,1.16406-.17969.32812-.42188.58008-.72559.75586-.30469.17676-.64844.26465-1.03223.26465-.37598,0-.71777-.08789-1.02539-.26465-.30859-.17578-.55273-.42773-.73242-.75586s-.27051-.71582-.27051-1.16406v-.14355c0-.43262.09082-.8125.27051-1.14062.17969-.32715.42383-.58301.73242-.76758.30762-.18359.64941-.27637,1.02539-.27637s.71777.09277,1.02637.27637c.30762.18457.55176.44043.73145.76758.18066.32812.27051.70801.27051,1.14062v.14355Z"/><path d="M69.11426,150.65137c-.91211,0-1.55176.39258-1.91992,1.17578h-.14355v-1.00781h-.93652v5.95215h.93652v-3.0957c0-.64844.16309-1.16602.49121-1.55469.32812-.3877.77246-.58203,1.33203-.58203.48047,0,.86035.15625,1.14062.46875.2793.31152.41992.7793.41992,1.40332v3.36035h.93555v-3.55176c0-.85645-.2041-1.49805-.61133-1.92578-.4082-.42871-.95605-.64258-1.64453-.64258Z"/><path d="M76.45801,150.65137c-.91211,0-1.55176.39258-1.91992,1.17578h-.14355v-1.00781h-.93652v5.95215h.93652v-3.0957c0-.64844.16309-1.16602.49121-1.55469.32812-.3877.77246-.58203,1.33203-.58203.48047,0,.86035.15625,1.14062.46875.2793.31152.41992.7793.41992,1.40332v3.36035h.93555v-3.55176c0-.85645-.2041-1.49805-.61133-1.92578-.4082-.42871-.95605-.64258-1.64453-.64258Z"/><path d="M85.62012,151.58789c-.22852-.27246-.52051-.49609-.87598-.67285-.35645-.17578-.77832-.26367-1.2666-.26367-.55176,0-1.0498.12793-1.49414.38379-.44336.25684-.79395.60449-1.0498,1.04395-.25586.44043-.38379.94043-.38379,1.5v.28809c0,.6084.12402,1.14258.37207,1.60254s.58984.82031,1.02637,1.08008c.43555.25977.9375.38965,1.50586.38965.76758,0,1.37793-.17383,1.83008-.52148.45117-.34863.76172-.79883.92969-1.35059l-.8877-.24023c-.10449.33594-.29688.62402-.57617.86426-.28027.24023-.7041.36035-1.27246.36035-.60742,0-1.08594-.18262-1.43359-.5459-.34766-.36426-.53418-.83789-.55859-1.42285h4.80078v-.76758c0-.26367-.05469-.5498-.16211-.8584-.1084-.30762-.27637-.59766-.50391-.86914ZM81.50977,153.21973c.06445-.48047.27637-.87988.63574-1.2002.36035-.32031.80469-.48047,1.33203-.48047.3125,0,.6084.06836.88867.2041.2793.13672.50977.33008.68945.58203s.27832.55078.29395.89453h-3.83984Z"/><path d="M92.49512,155.21777c-.14746.24414-.35547.44336-.62402.59961-.26758.15625-.59766.23438-.98926.23438-.39258,0-.74805-.08594-1.06836-.25781-.32031-.17285-.57422-.4209-.76172-.74414-.18848-.32422-.28223-.70996-.28223-1.1582v-.14453c0-.43164.09375-.81348.28223-1.14551.1875-.33203.43945-.5918.75586-.78027.31543-.1875.66602-.28223,1.0498-.28223.3916,0,.72168.07617.99023.22852.26758.15234.47754.34961.62988.59375s.24414.50586.27637.78613l.93555-.21582c-.07227-.44043-.23438-.83203-.48633-1.17578-.25195-.34473-.5752-.61426-.97168-.81055-.39551-.19531-.8457-.29395-1.34961-.29395-.55273,0-1.06055.12402-1.52441.37207s-.83789.60449-1.12207,1.06836-.42578,1.01562-.42578,1.65527v.14453c0,.64746.1416,1.2002.42578,1.65625s.6582.80176,1.12207,1.03809c.46387.23535.97168.35352,1.52441.35352.51953,0,.97754-.09766,1.37402-.29395.39551-.19629.71777-.46582.96582-.80957.24805-.34473.41211-.73633.49219-1.17676l-.93652-.21582c-.04004.27246-.13379.53027-.28223.77441Z"/><path d="M98.09375,148.37109h-.93652v2.44824h-1.87207v.86426h1.87207v4.15234c0,.27148.08594.49609.25781.67188s.39453.26367.66602.26367h2.02832v-.86426h-1.69238c-.21582,0-.32324-.12012-.32324-.35938v-3.86426h2.30371v-.86426h-2.30371v-2.44824Z"/><path d="M105.52246,149.88379c.23145,0,.42969-.08398.59375-.25195s.24609-.36426.24609-.58789c0-.23242-.08203-.43066-.24609-.59473s-.3623-.24609-.59375-.24609c-.22461,0-.4209.08203-.58887.24609s-.25195.3623-.25195.59473c0,.22363.08398.41992.25195.58789s.36426.25195.58887.25195Z"/><polygon points="106.00195 150.81934 103.19434 150.81934 103.19434 151.68359 105.06641 151.68359 105.06641 155.90723 102.97852 155.90723 102.97852 156.77148 107.94629 156.77148 107.94629 155.90723 106.00195 155.90723 106.00195 150.81934"/><path d="M114.27539,151.01172c-.45215-.24023-.94141-.36035-1.46973-.36035s-1.01758.12012-1.46973.36035-.81836.58984-1.09863,1.0498c-.2793.45996-.41992,1.01367-.41992,1.66211v.14355c0,.65625.14062,1.21191.41992,1.66797.28027.45605.64648.80469,1.09863,1.04395.45215.24023.94141.36035,1.46973.36035s1.01758-.12012,1.46973-.36035c.45215-.23926.81836-.58789,1.09863-1.04395.2793-.45605.41992-1.01172.41992-1.66797v-.14355c0-.64844-.14062-1.20215-.41992-1.66211-.28027-.45996-.64648-.80957-1.09863-1.0498ZM114.83398,153.86719c0,.44824-.08984.83594-.27051,1.16406-.17969.32812-.42188.58008-.72559.75586-.30469.17676-.64844.26465-1.03223.26465-.37598,0-.71777-.08789-1.02539-.26465-.30859-.17578-.55273-.42773-.73242-.75586s-.27051-.71582-.27051-1.16406v-.14355c0-.43262.09082-.8125.27051-1.14062.17969-.32715.42383-.58301.73242-.76758.30762-.18359.64941-.27637,1.02539-.27637s.71777.09277,1.02637.27637c.30762.18457.55176.44043.73145.76758.18066.32812.27051.70801.27051,1.14062v.14355Z"/><path d="M120.52148,150.65137c-.91211,0-1.55176.39258-1.91992,1.17578h-.14355v-1.00781h-.93652v5.95215h.93652v-3.0957c0-.64844.16309-1.16602.49121-1.55469.32812-.3877.77246-.58203,1.33203-.58203.48047,0,.86035.15625,1.14062.46875.2793.31152.41992.7793.41992,1.40332v3.36035h.93555v-3.55176c0-.85645-.2041-1.49805-.61133-1.92578-.4082-.42871-.95605-.64258-1.64453-.64258Z"/><path d="M129.39062,153.81348c-.36816-.27637-.89648-.44238-1.58398-.49805-.64844-.04785-1.09473-.14746-1.33789-.2998-.24414-.15234-.36621-.37207-.36621-.66016s.13184-.50391.39551-.64844c.26465-.14355.56445-.21582.90039-.21582.43164,0,.78418.1084,1.05566.32422.27246.21582.42383.51562.45605.90039l.8877-.2168c-.04004-.30371-.15137-.59766-.33594-.88184-.18359-.2832-.44922-.51562-.79785-.69531-.34766-.18066-.78613-.27051-1.31348-.27051-.36816,0-.7168.06445-1.04395.19238-.32812.12793-.59668.31738-.80469.56934s-.31152.56641-.31152.94238v.07227c0,.51172.18555.90527.55762,1.18164s.89844.43848,1.57812.48633c.5918.04004,1.02051.13184,1.28418.27539.26367.14453.39551.38477.39551.7207,0,.31152-.13379.55371-.40137.72559-.26855.17188-.62207.25781-1.0625.25781-.51172,0-.92578-.1377-1.24219-.41406-.31543-.27539-.49316-.6416-.5332-1.09766l-.88867.21582c.02441.35254.13281.69434.32422,1.02637.19238.33203.48438.60352.87598.81543s.89648.31836,1.51172.31836c.69629,0,1.2627-.16406,1.69824-.49219.43652-.32812.6543-.7793.6543-1.35547v-.07227c0-.52832-.18457-.92969-.55176-1.20605Z"/><polygon points="160.36035 152.0918 156.78418 152.0918 156.78418 148.37109 155.77637 148.37109 155.77637 156.77148 156.78418 156.77148 156.78418 153.02734 160.36035 153.02734 160.36035 156.77148 161.36816 156.77148 161.36816 148.37109 160.36035 148.37109 160.36035 152.0918"/><polygon points="166.45605 150.81934 163.64844 150.81934 163.64844 151.68359 165.52051 151.68359 165.52051 155.90723 163.43262 155.90723 163.43262 156.77148 168.40039 156.77148 168.40039 155.90723 166.45605 155.90723 166.45605 150.81934"/><path d="M165.97656,149.88379c.23145,0,.42969-.08398.59375-.25195s.24609-.36426.24609-.58789c0-.23242-.08203-.43066-.24609-.59473s-.3623-.24609-.59375-.24609c-.22461,0-.4209.08203-.58887.24609s-.25195.3623-.25195.59473c0,.22363.08398.41992.25195.58789s.36426.25195.58887.25195Z"/><path d="M175.15625,151.75586h-.14453c-.17578-.36035-.42773-.63477-.75586-.82227s-.70801-.28223-1.13965-.28223c-.5127,0-.98828.12012-1.42871.36035-.43945.24023-.7959.58594-1.06738,1.03809-.27246.45215-.4082,1.00195-.4082,1.64941v.19238c0,.64746.13379,1.2002.40234,1.65625.26758.45605.62402.80176,1.06738,1.03809.44434.23535.93066.35352,1.45801.35352.39258,0,.75391-.08984,1.08594-.26953.33203-.18066.59473-.4502.78613-.81055h.14453v2.08789c0,.24023-.1084.36035-.32422.36035h-3.54004v.86426h3.87598c.27148,0,.49414-.08887.66602-.26465s.25781-.39941.25781-.67188v-7.41602h-.93555v.93652ZM175.15625,153.86719c0,.44043-.08887.82422-.26465,1.15234s-.41406.58203-.71387.76172c-.2998.18066-.6377.27051-1.01367.27051-.38379,0-.72656-.08789-1.02637-.26465-.2998-.17578-.53613-.42578-.70801-.75-.17188-.32324-.25781-.70508-.25781-1.14551v-.19238c0-.43164.08789-.80957.26367-1.13379s.41406-.57617.71387-.75586c.30078-.17969.63867-.27051,1.01465-.27051.36816,0,.70215.09473,1.00195.28223.2998.18848.54004.44629.71973.77441s.27051.7041.27051,1.12793v.14355Z"/><path d="M181.04883,150.65137c-.48047,0-.88672.1123-1.21777.33594-.33203.22461-.59082.52832-.77441.91211h-.14355v-3.52832h-.93652v8.40039h.93652v-3.0957c0-.64844.16309-1.16602.49121-1.55469.32812-.3877.77246-.58203,1.33203-.58203.48047,0,.86035.15625,1.14062.46875.2793.31152.41992.7793.41992,1.40332v3.36035h.93555v-3.55176c0-.85645-.20215-1.49805-.60547-1.92578-.4043-.42871-.93066-.64258-1.57812-.64258Z"/><path d="M197.01367,155.21777c-.14746.24414-.35547.44336-.62402.59961-.26758.15625-.59766.23438-.98926.23438-.39258,0-.74805-.08594-1.06836-.25781-.32031-.17285-.57422-.4209-.76172-.74414-.18848-.32422-.28223-.70996-.28223-1.1582v-.14453c0-.43164.09375-.81348.28223-1.14551.1875-.33203.43945-.5918.75586-.78027.31543-.1875.66602-.28223,1.0498-.28223.3916,0,.72168.07617.99023.22852.26758.15234.47754.34961.62988.59375s.24414.50586.27637.78613l.93555-.21582c-.07227-.44043-.23438-.83203-.48633-1.17578-.25195-.34473-.5752-.61426-.97168-.81055-.39551-.19531-.8457-.29395-1.34961-.29395-.55273,0-1.06055.12402-1.52441.37207s-.83789.60449-1.12207,1.06836-.42578,1.01562-.42578,1.65527v.14453c0,.64746.1416,1.2002.42578,1.65625s.6582.80176,1.12207,1.03809c.46387.23535.97168.35352,1.52441.35352.51953,0,.97754-.09766,1.37402-.29395.39551-.19629.71777-.46582.96582-.80957.24805-.34473.41211-.73633.49219-1.17676l-.93652-.21582c-.04004.27246-.13379.53027-.28223.77441Z"/><path d="M204.10645,151.01172c-.45215-.24023-.94141-.36035-1.46973-.36035s-1.01758.12012-1.46973.36035-.81836.58984-1.09863,1.0498c-.2793.45996-.41992,1.01367-.41992,1.66211v.14355c0,.65625.14062,1.21191.41992,1.66797.28027.45605.64648.80469,1.09863,1.04395.45215.24023.94141.36035,1.46973.36035s1.01758-.12012,1.46973-.36035c.45215-.23926.81836-.58789,1.09863-1.04395.2793-.45605.41992-1.01172.41992-1.66797v-.14355c0-.64844-.14062-1.20215-.41992-1.66211-.28027-.45996-.64648-.80957-1.09863-1.0498ZM204.66504,153.86719c0,.44824-.08984.83594-.27051,1.16406-.17969.32812-.42188.58008-.72559.75586-.30469.17676-.64844.26465-1.03223.26465-.37598,0-.71777-.08789-1.02539-.26465-.30859-.17578-.55273-.42773-.73242-.75586s-.27051-.71582-.27051-1.16406v-.14355c0-.43262.09082-.8125.27051-1.14062.17969-.32715.42383-.58301.73242-.76758.30762-.18359.64941-.27637,1.02539-.27637s.71777.09277,1.02637.27637c.30762.18457.55176.44043.73145.76758.18066.32812.27051.70801.27051,1.14062v.14355Z"/><path d="M210.35254,150.65137c-.91211,0-1.55176.39258-1.91992,1.17578h-.14355v-1.00781h-.93652v5.95215h.93652v-3.0957c0-.64844.16309-1.16602.49121-1.55469.32812-.3877.77246-.58203,1.33203-.58203.48047,0,.86035.15625,1.14062.46875.2793.31152.41992.7793.41992,1.40332v3.36035h.93555v-3.55176c0-.85645-.2041-1.49805-.61133-1.92578-.4082-.42871-.95605-.64258-1.64453-.64258Z"/><path d="M217.69629,150.65137c-.91211,0-1.55176.39258-1.91992,1.17578h-.14355v-1.00781h-.93652v5.95215h.93652v-3.0957c0-.64844.16309-1.16602.49121-1.55469.32812-.3877.77246-.58203,1.33203-.58203.48047,0,.86035.15625,1.14062.46875.2793.31152.41992.7793.41992,1.40332v3.36035h.93555v-3.55176c0-.85645-.2041-1.49805-.61133-1.92578-.4082-.42871-.95605-.64258-1.64453-.64258Z"/><path d="M226.8584,151.58789c-.22852-.27246-.52051-.49609-.87598-.67285-.35645-.17578-.77832-.26367-1.2666-.26367-.55176,0-1.0498.12793-1.49414.38379-.44336.25684-.79395.60449-1.0498,1.04395-.25586.44043-.38379.94043-.38379,1.5v.28809c0,.6084.12402,1.14258.37207,1.60254s.58984.82031,1.02637,1.08008c.43555.25977.9375.38965,1.50586.38965.76758,0,1.37793-.17383,1.83008-.52148.45117-.34863.76172-.79883.92969-1.35059l-.8877-.24023c-.10449.33594-.29688.62402-.57617.86426-.28027.24023-.7041.36035-1.27246.36035-.60742,0-1.08594-.18262-1.43359-.5459-.34766-.36426-.53418-.83789-.55859-1.42285h4.80078v-.76758c0-.26367-.05469-.5498-.16211-.8584-.1084-.30762-.27637-.59766-.50391-.86914ZM222.74805,153.21973c.06445-.48047.27637-.87988.63574-1.2002.36035-.32031.80469-.48047,1.33203-.48047.3125,0,.6084.06836.88867.2041.2793.13672.50977.33008.68945.58203s.27832.55078.29395.89453h-3.83984Z"/><path d="M233.7334,155.21777c-.14746.24414-.35547.44336-.62402.59961-.26758.15625-.59766.23438-.98926.23438-.39258,0-.74805-.08594-1.06836-.25781-.32031-.17285-.57422-.4209-.76172-.74414-.18848-.32422-.28223-.70996-.28223-1.1582v-.14453c0-.43164.09375-.81348.28223-1.14551.1875-.33203.43945-.5918.75586-.78027.31543-.1875.66602-.28223,1.0498-.28223.3916,0,.72168.07617.99023.22852.26758.15234.47754.34961.62988.59375s.24414.50586.27637.78613l.93555-.21582c-.07227-.44043-.23438-.83203-.48633-1.17578-.25195-.34473-.5752-.61426-.97168-.81055-.39551-.19531-.8457-.29395-1.34961-.29395-.55273,0-1.06055.12402-1.52441.37207s-.83789.60449-1.12207,1.06836-.42578,1.01562-.42578,1.65527v.14453c0,.64746.1416,1.2002.42578,1.65625s.6582.80176,1.12207,1.03809c.46387.23535.97168.35352,1.52441.35352.51953,0,.97754-.09766,1.37402-.29395.39551-.19629.71777-.46582.96582-.80957.24805-.34473.41211-.73633.49219-1.17676l-.93652-.21582c-.04004.27246-.13379.53027-.28223.77441Z"/><path d="M239.33301,148.37109h-.93652v2.44824h-1.87207v.86426h1.87207v4.15234c0,.27148.08594.49609.25781.67188s.39453.26367.66602.26367h2.02832v-.86426h-1.69238c-.21582,0-.32324-.12012-.32324-.35938v-3.86426h2.30371v-.86426h-2.30371v-2.44824Z"/><path d="M246.76074,149.88379c.23145,0,.42969-.08398.59375-.25195s.24609-.36426.24609-.58789c0-.23242-.08203-.43066-.24609-.59473s-.3623-.24609-.59375-.24609c-.22461,0-.4209.08203-.58887.24609s-.25195.3623-.25195.59473c0,.22363.08398.41992.25195.58789s.36426.25195.58887.25195Z"/><polygon points="247.24023 150.81934 244.43262 150.81934 244.43262 151.68359 246.30469 151.68359 246.30469 155.90723 244.2168 155.90723 244.2168 156.77148 249.18457 156.77148 249.18457 155.90723 247.24023 155.90723 247.24023 150.81934"/><path d="M255.51367,151.01172c-.45215-.24023-.94141-.36035-1.46973-.36035s-1.01758.12012-1.46973.36035-.81836.58984-1.09863,1.0498c-.2793.45996-.41992,1.01367-.41992,1.66211v.14355c0,.65625.14062,1.21191.41992,1.66797.28027.45605.64648.80469,1.09863,1.04395.45215.24023.94141.36035,1.46973.36035s1.01758-.12012,1.46973-.36035c.45215-.23926.81836-.58789,1.09863-1.04395.2793-.45605.41992-1.01172.41992-1.66797v-.14355c0-.64844-.14062-1.20215-.41992-1.66211-.28027-.45996-.64648-.80957-1.09863-1.0498ZM256.07227,153.86719c0,.44824-.08984.83594-.27051,1.16406-.17969.32812-.42188.58008-.72559.75586-.30469.17676-.64844.26465-1.03223.26465-.37598,0-.71777-.08789-1.02539-.26465-.30859-.17578-.55273-.42773-.73242-.75586s-.27051-.71582-.27051-1.16406v-.14355c0-.43262.09082-.8125.27051-1.14062.17969-.32715.42383-.58301.73242-.76758.30762-.18359.64941-.27637,1.02539-.27637s.71777.09277,1.02637.27637c.30762.18457.55176.44043.73145.76758.18066.32812.27051.70801.27051,1.14062v.14355Z"/><path d="M261.76074,150.65137c-.91211,0-1.55176.39258-1.91992,1.17578h-.14355v-1.00781h-.93652v5.95215h.93652v-3.0957c0-.64844.16309-1.16602.49121-1.55469.32812-.3877.77246-.58203,1.33203-.58203.48047,0,.86035.15625,1.14062.46875.2793.31152.41992.7793.41992,1.40332v3.36035h.93555v-3.55176c0-.85645-.2041-1.49805-.61133-1.92578-.4082-.42871-.95605-.64258-1.64453-.64258Z"/><path d="M270.62891,153.81348c-.36816-.27637-.89648-.44238-1.58398-.49805-.64844-.04785-1.09473-.14746-1.33789-.2998-.24414-.15234-.36621-.37207-.36621-.66016s.13184-.50391.39551-.64844c.26465-.14355.56445-.21582.90039-.21582.43164,0,.78418.1084,1.05566.32422.27246.21582.42383.51562.45605.90039l.8877-.2168c-.04004-.30371-.15137-.59766-.33594-.88184-.18359-.2832-.44922-.51562-.79785-.69531-.34766-.18066-.78613-.27051-1.31348-.27051-.36816,0-.7168.06445-1.04395.19238-.32812.12793-.59668.31738-.80469.56934s-.31152.56641-.31152.94238v.07227c0,.51172.18555.90527.55762,1.18164s.89844.43848,1.57812.48633c.5918.04004,1.02051.13184,1.28418.27539.26367.14453.39551.38477.39551.7207,0,.31152-.13379.55371-.40137.72559-.26855.17188-.62207.25781-1.0625.25781-.51172,0-.92578-.1377-1.24219-.41406-.31543-.27539-.49316-.6416-.5332-1.09766l-.88867.21582c.02441.35254.13281.69434.32422,1.02637.19238.33203.48438.60352.87598.81543s.89648.31836,1.51172.31836c.69629,0,1.2627-.16406,1.69824-.49219.43652-.32812.6543-.7793.6543-1.35547v-.07227c0-.52832-.18457-.92969-.55176-1.20605Z"/><path d="M262.99932,78.86682c0,27.25368-22.09347,49.34715-49.34715,49.34715s-49.34715-22.09347-49.34715-49.34715,22.09347-49.34715,49.34715-49.34715,49.34715,22.09347,49.34715,49.34715" fill="#f49d37"/></svg>