<?xml version="1.0" encoding="UTF-8"?><svg id="Livello_1" xmlns="http://www.w3.org/2000/svg" viewBox="0 0 300 200"><path d="M127.29592,173.4214c4.07704,7.66979,18.31253,8.12744,26.42231,7.76597,5.75618-.40033,11.92771-2.06607,15.36088-6.71885,3.98694-5.03938,1.33891-12.08886-4.54989-14.0784-5.29809-2.09418-12.12329-.58537-17.96898-.01946-4.82608.54338-9.89515.52021-13.95158,2.27406-4.13861,1.56564-7.30195,6.26907-5.38592,10.60935" fill="rgba(166,184,204,.25)" stroke="rgba(78,94,114,.75)" stroke-miterlimit="2.2974" stroke-width=".34761"/><path d="M86.09138,30.04873c-10.87709.48409-23.76372,22.74198-19.53765,32.66449,2.31556,5.13249,10.75784,5.33584,14.67808,1.55535,3.7637-3.27871,5.33917-9.19704,7.2537-13.97341,1.52132-3.97395,4.77912-8.2272,5.04856-12.08993.45796-3.90464-3.2373-7.99112-7.44268-8.1565Z" fill="rgba(42,244,104,.25)" stroke="rgba(0,204,116,.75)" stroke-miterlimit="2.2974" stroke-width=".30456"/><path d="M232.61756,43.40829c-2.41467-5.97192-6.8881-11.75503-12.89617-14.02458-6.08894-2.50193-11.90867,1.45868-12.6285,7.76977-1.75163,9.42407,8.98482,39.45073,21.98566,31.0041,7.27188-5.48771,6.74797-16.69438,3.62037-24.546l-.08136-.20329Z" fill="rgba(242,39,39,.25)" stroke="rgba(237,0,46,.75)" stroke-miterlimit="2.2974" stroke-width=".34556"/><polyline points="161.31028 169.54671 150 142.55889 138.68972 169.54671" fill="none" stroke="#dadada" stroke-miterlimit="10" stroke-width=".74256"/><polyline points="74.16981 57.79521 103.19722 61.49438 85.4801 38.20523" fill="none" stroke="#dadada" stroke-miterlimit="10" stroke-width=".74256"/><polyline points="225.83019 57.79521 196.80278 61.49438 214.5199 38.20523" fill="none" stroke="#dadada" stroke-miterlimit="10" stroke-width=".74256"/><g id="_Ripetizione_radiale_"><line x1="150" y1="102.02344" x2="150" y2="142.617" fill="#9d9d9c" stroke="#dadada" stroke-miterlimit="10" stroke-width=".74256"/></g><g id="_Ripetizione_radiale_-2"><line x1="138.30167" y1="95.2705" x2="103.14661" y2="115.56728" fill="#9d9d9c" stroke="#dadada" stroke-miterlimit="10" stroke-width=".74256"/></g><g id="_Ripetizione_radiale_-3"><line x1="138.30142" y1="81.76167" x2="103.14637" y2="61.46489" fill="#9d9d9c" stroke="#dadada" stroke-miterlimit="10" stroke-width=".74256"/></g><g id="_Ripetizione_radiale_-4"><line x1="150" y1="75.00773" x2="150" y2="34.41417" fill="#9d9d9c" stroke="#dadada" stroke-miterlimit="10" stroke-width=".74256"/></g><g id="_Ripetizione_radiale_-5"><line x1="161.69882" y1="81.76164" x2="196.85388" y2="61.46486" fill="#9d9d9c" stroke="#dadada" stroke-miterlimit="10" stroke-width=".74256"/></g><g id="_Ripetizione_radiale_-6"><line x1="161.69785" y1="95.26999" x2="196.8529" y2="115.56677" fill="#9d9d9c" stroke="#dadada" stroke-miterlimit="10" stroke-width=".74256"/></g><circle cx="150" cy="88.51592" r="32.83259" fill="#b0c5e2"/><g id="_Ripetizione_radiale_-7"><path d="M140.33812,142.55889c0-5.33592,4.32562-9.66154,9.66154-9.66154,5.33592,0,9.66154,4.32562,9.66154,9.66154s-4.32562,9.66154-9.66154,9.66154c-5.33592,0-9.66154-4.32562-9.66154-9.66154Z" fill="#ffe2c5"/></g><g id="_Ripetizione_radiale_-8"><circle cx="103.19779" cy="115.53663" r="9.66154" fill="#ffe2c5"/></g><g id="_Ripetizione_radiale_-9"><circle cx="103.19722" cy="61.49438" r="9.66154" fill="#ffe2c5"/></g><g id="_Ripetizione_radiale_-10"><path d="M159.66188,34.47255c0,5.33592-4.32562,9.66154-9.66154,9.66154-5.33592,0-9.66154-4.32562-9.66154-9.66154s4.32562-9.66154,9.66154-9.66154c5.33592,0,9.66154,4.32562,9.66154,9.66154Z" fill="#ffe2c5"/></g><g id="_Ripetizione_radiale_-11"><circle cx="196.80133" cy="61.49451" r="9.66154" fill="#ffe2c5"/></g><g id="_Ripetizione_radiale_-12"><circle cx="196.8028" cy="115.53754" r="9.66154" fill="#ffe2c5"/></g><g id="_Ripetizione_radiale_-13"><circle cx="138.68972" cy="169.54671" r="5.64228" fill="#db3a34"/><circle cx="161.31028" cy="169.54671" r="5.64228" fill="#0c6"/></g><circle cx="85.4801" cy="38.20523" r="5.64228" fill="#0c6"/><circle cx="74.16981" cy="57.79521" r="5.64228" fill="#0c6"/><g id="_Ripetizione_radiale_-14"><circle cx="225.83019" cy="57.79537" r="5.64228" fill="#db3a34"/><circle cx="214.5199" cy="38.20538" r="5.64228" fill="#db3a34"/></g></svg>