<?xml version="1.0" encoding="UTF-8"?><svg id="Livello_1" xmlns="http://www.w3.org/2000/svg" viewBox="0 0 24 24"><path d="M14.11392,11.93967h-1.58984v-1.59082c0-.3916-.31738-.70898-.70898-.70898s-.70898.31738-.70898.70898v1.59082h-1.58984c-.3916,0-.70898.31738-.70898.70898s.31738.70898.70898.70898h1.58984v1.58984c0,.3916.31738.70898.70898.70898s.70898-.31738.70898-.70898v-1.58984h1.58984c.3916,0,.70898-.31738.70898-.70898s-.31738-.70898-.70898-.70898Z" fill="#currentColor"/><path d="M20.49093,8.66409c-.03632-.08765-.08899-.16644-.15527-.23218l-4.95227-4.95227c-.06586-.06641-.14484-.11908-.2326-.15533-.08649-.03583-.17822-.05457-.27026-.05457H6.75064c-1.46973,0-2.66602,1.19531-2.66602,2.66504v12.13086c0,1.46973,1.19629,2.66504,2.66602,2.66504h11.12988c1.46973,0,2.66504-1.19531,2.66504-2.66504v-9.13086c0-.09222-.01874-.18414-.05463-.27069ZM15.5895,5.68967l2.53613,2.53613h-1.28906c-.6875,0-1.24707-.55957-1.24707-1.24707v-1.28906ZM17.88052,19.31271H6.75064c-.68848,0-1.24805-.55957-1.24805-1.24707V5.93478c0-.6875.55957-1.24707,1.24805-1.24707h7.4209v2.29102c0,1.46973,1.19531,2.66504,2.66504,2.66504h2.29102v8.42188c0,.6875-.55957,1.24707-1.24707,1.24707Z" fill="#currentColor"/></svg>