<?xml version="1.0" encoding="UTF-8"?><svg id="Livello_1" xmlns="http://www.w3.org/2000/svg" viewBox="0 0 24 24"><path d="M12.90432,11.64816l3.63678-3.63721c.27734-.27637.27734-.72559,0-1.00195-.27734-.27734-.72461-.27734-1.00195,0l-3.63672,3.63715-3.63672-3.63715c-.27734-.27734-.72461-.27734-1.00195,0-.27734.27637-.27734.72559,0,1.00195l3.63678,3.63721-3.63678,3.63721c-.27734.27637-.27734.72559,0,1.00195.13867.13867.31934.20801.50098.20801s.3623-.06934.50098-.20801l3.63672-3.63715,3.63672,3.63715c.13867.13867.31934.20801.50098.20801s.3623-.06934.50098-.20801c.27734-.27637.27734-.72559,0-1.00195l-3.63678-3.63721Z" fill="#currentColor"/></svg>