<?xml version="1.0" encoding="UTF-8"?><svg id="Livello_1" xmlns="http://www.w3.org/2000/svg" viewBox="0 0 24 24"><path d="M18.11213,6.77072h-2.9668v-.94629c0-.94629-.77051-1.7168-1.7168-1.7168h-2.85742c-.94629,0-1.71582.77051-1.71582,1.7168v.94629h-2.96777c-.3916,0-.70898.31738-.70898.70898s.31738.70898.70898.70898h.7793v9.9873c0,.94629.76953,1.71582,1.71582,1.71582h7.23438c.94629,0,1.7168-.76953,1.7168-1.71582v-9.9873h.77832c.3916,0,.70898-.31738.70898-.70898s-.31738-.70898-.70898-.70898ZM10.27327,5.82443c0-.16504.13379-.29883.29785-.29883h2.85742c.16504,0,.29883.13379.29883.29883v.94629h-3.4541v-.94629ZM15.91585,18.17599c0,.16406-.13379.29785-.29883.29785h-7.23438c-.16406,0-.29785-.13379-.29785-.29785v-9.9873h7.83105v9.9873Z" fill="#currentColor"/></svg>