<?xml version="1.0" encoding="UTF-8"?><svg id="Livello_1" xmlns="http://www.w3.org/2000/svg" viewBox="0 0 24 24"><path d="M19.29373,4.70627c-1.68945-1.68945-4.43945-1.68945-6.12891,0l-.72656.72656-7.02441,7.02539c-.06213.06213-.10822.13599-.14325.21509-.01331.02997-.01794.06079-.02692.09192-.01056.03656-.02747.07092-.03198.10901l-.70703,5.83301c-.02637.21582.04785.43164.20215.58594.13379.13379.31445.20801.50098.20801.02832,0,.05664-.00195.08496-.00586l5.83301-.70703c.03815-.00452.07257-.02142.10919-.03198.03101-.00891.06183-.01361.09155-.02686.07916-.03503.15308-.08112.21527-.14331l7.02539-7.02441.72656-.72656c1.68848-1.68945,1.68848-4.43945,0-6.12891ZM6.44309,14.48941l3.0675,3.0675-3.4903.42279.42279-3.4903ZM11.0408,17.08322l-4.12402-4.12402,6.02246-6.02344,2.08203,2.08203.00098.00098,2.04199,2.04199-6.02344,6.02246ZM18.29178,9.83322l-.22559.22559-2.04199-2.04199-2.08301-2.08301.22559-.22559c1.13672-1.13672,2.98828-1.13672,4.125,0,1.13574,1.1377,1.13574,2.9873,0,4.125Z" fill="#currentColor"/></svg>