<?xml version="1.0" encoding="UTF-8"?><svg id="Livello_1" xmlns="http://www.w3.org/2000/svg" viewBox="0 0 24 24"><path d="M20.14372,8.97092l-4.61426-4.61328c-.64844-.65039-1.78027-.64941-2.42676-.00098l-6.85156,6.85059c-.4906.4906-.61774,1.20624-.38873,1.81726l-1.44037,1.43958c-.58789.58789-.58789,1.54297,0,2.13086l3.4834,3.4834c.28418.28418.66309.44141,1.06445.44141.40234,0,.78125-.15723,1.06543-.44141l1.44031-1.44031c.19073.07153.39343.11316.60364.11316.45898,0,.88965-.17773,1.21289-.50195l6.85156-6.85156c.66895-.66895.66895-1.75781,0-2.42676ZM9.03337,19.07638c-.03418.03516-.08984.03516-.12598,0l-3.4834-3.4834c-.03516-.03516-.03516-.0918,0-.12695l1.32996-1.32922,3.6095,3.6095-1.33008,1.33008ZM19.14177,10.39572l-6.85156,6.85156c-.11719.11523-.30469.11523-.42188,0l-4.61523-4.61523c-.07617-.07617-.08789-.16504-.08789-.21191,0-.0459.01172-.13477.08789-.21094l6.85254-6.85156c.0752-.0752.16406-.08691.20996-.08691s.13477.01172.21094.08789l4.61523,4.61426c.07617.07617.08789.16504.08789.21094,0,.04688-.01172.13574-.08789.21191Z" fill="#currentColor"/></svg>