<?xml version="1.0" encoding="UTF-8"?><svg id="Livello_1" xmlns="http://www.w3.org/2000/svg" viewBox="0 0 24 24"><path d="M19.25552,14.31564c-.3916,0-.70898.31738-.70898.70898v2.69141c0,.16699-.13574.30273-.30273.30273H5.75552c-.16699,0-.30176-.13574-.30176-.30273v-2.69141c0-.3916-.31738-.70898-.70898-.70898s-.70898.31738-.70898.70898v2.69141c0,.94824.77148,1.7207,1.71973,1.7207h12.48828c.94824,0,1.7207-.77246,1.7207-1.7207v-2.69141c0-.3916-.31738-.70898-.70898-.70898Z" fill="#currentColor"/><path d="M11.45187,15.43191c.06531.06586.14331.11859.23022.15485.08551.03577.17792.05505.27264.05505.09418,0,.18652-.01923.27209-.05493.0871-.03625.16534-.08899.23077-.15497l3.31061-3.31061c.27734-.27637.27734-.72559,0-1.00195-.27734-.27734-.72461-.27734-1.00195,0l-2.10254,2.10254v-6.94922c0-.3916-.31738-.70898-.70898-.70898s-.70898.31738-.70898.70898v6.94897l-2.01172-2.01245c-.27734-.27734-.72461-.27734-1.00195,0-.27637.27637-.27734.72559,0,1.00195l3.21979,3.22076Z" fill="#currentColor"/></svg>