<?xml version="1.0" encoding="UTF-8"?><svg id="Livello_1" xmlns="http://www.w3.org/2000/svg" viewBox="0 0 24 24"><path d="M9.375,4.29123h-.9082c-2.30273,0-4.17578,1.87305-4.17578,4.17578v.9082c0,.3916.31738.70898.70898.70898s.70898-.31738.70898-.70898v-.9082c0-1.52051,1.2373-2.75781,2.75781-2.75781h.9082c.3916,0,.70898-.31738.70898-.70898s-.31738-.70898-.70898-.70898Z" fill="#currentColor"/><path d="M9.375,18.29123h-.9082c-1.52051,0-2.75781-1.2373-2.75781-2.75781v-.9082c0-.3916-.31738-.70898-.70898-.70898s-.70898.31738-.70898.70898v.9082c0,2.30273,1.87305,4.17578,4.17578,4.17578h.9082c.3916,0,.70898-.31738.70898-.70898s-.31738-.70898-.70898-.70898Z" fill="#currentColor"/><path d="M19,13.91623c-.3916,0-.70898.31738-.70898.70898v.9082c0,1.52051-1.2373,2.75781-2.75781,2.75781h-.9082c-.3916,0-.70898.31738-.70898.70898s.31738.70898.70898.70898h.9082c2.30273,0,4.17578-1.87305,4.17578-4.17578v-.9082c0-.3916-.31738-.70898-.70898-.70898Z" fill="#currentColor"/><path d="M15.5332,4.29123h-.9082c-.3916,0-.70898.31738-.70898.70898s.31738.70898.70898.70898h.9082c1.52051,0,2.75781,1.2373,2.75781,2.75781v.9082c0,.3916.31738.70898.70898.70898s.70898-.31738.70898-.70898v-.9082c0-2.30273-1.87305-4.17578-4.17578-4.17578Z" fill="#currentColor"/><circle cx="12" cy="11.99997" r="1.5" fill="#currentColor"/></svg>