<?xml version="1.0" encoding="UTF-8"?><svg id="Livello_1" xmlns="http://www.w3.org/2000/svg" viewBox="0 0 24 24"><path d="M12,6.2258c-3.18408,0-5.77393,2.59082-5.77393,5.77441s2.58984,5.77441,5.77393,5.77441c3.18359,0,5.77441-2.59082,5.77441-5.77441s-2.59082-5.77441-5.77441-5.77441ZM12,16.35666c-2.40234,0-4.35693-1.9541-4.35693-4.35645s1.95459-4.35645,4.35693-4.35645,4.35645,1.9541,4.35645,4.35645-1.9541,4.35645-4.35645,4.35645Z" fill="currentColor"/><path d="M12.00004,19.88001c-.55792,0-1.01024.45231-1.01024,1.01024s.45231,1.01017,1.01024,1.01017,1.01024-.45225,1.01024-1.01017-.45231-1.01024-1.01024-1.01024Z" fill="currentColor"/><path d="M4.99969,17.57212c-.39457.39451-.39457,1.03414,0,1.42864.39451.39451,1.03407.39451,1.42864,0,.39451-.39451.39451-1.03414,0-1.42864-.39457-.39451-1.03414-.39451-1.42864,0Z" fill="currentColor"/><path d="M3.11028,10.98891c-.55792,0-1.01024.45231-1.01024,1.01024s.45231,1.01017,1.01024,1.01017,1.01017-.45225,1.01017-1.01017-.45225-1.01024-1.01017-1.01024Z" fill="currentColor"/><circle cx="5.71381" cy="5.71412" r="1.0102" fill="currentColor"/><path d="M12.00004,4.12035c.55792,0,1.01024-.45225,1.01024-1.01017s-.45231-1.01024-1.01024-1.01024-1.01024.45231-1.01024,1.01024.45231,1.01017,1.01024,1.01017Z" fill="currentColor"/><path d="M19.00039,6.42804c.39457-.39451.39457-1.03414,0-1.42864-.39451-.39451-1.03407-.39451-1.42864,0-.39451.39451-.39451,1.03414,0,1.42864.39457.39451,1.03414.39451,1.42864,0Z" fill="currentColor"/><path d="M20.889,10.98978c-.55792,0-1.01024.45225-1.01024,1.01017s.45231,1.01024,1.01024,1.01024,1.01017-.45231,1.01017-1.01024-.45225-1.01017-1.01017-1.01017Z" fill="currentColor"/><circle cx="18.28734" cy="18.28624" r="1.0102" fill="currentColor"/></svg>