<?xml version="1.0" encoding="UTF-8"?><svg id="Livello_1" xmlns="http://www.w3.org/2000/svg" viewBox="0 0 24 24"><path d="M12.732,5.01877c-3.44952,0-6.35516,2.34418-7.22705,5.52142l-.63525-.98431c-.21191-.32812-.65039-.42188-.98047-.21094-.32812.21289-.42285.65137-.21094.98047l1.66602,2.58008c.01367.02094.03571.03357.05133.0528.03009.03741.0614.0705.09839.10114.03345.02765.06787.05017.10583.07129.04224.02368.08478.04224.13177.05695.02069.00647.0376.02094.05896.02545.0498.01074.09961.0166.14941.0166.08447,0,.16602-.02014.24493-.04944.02374-.00885.04492-.01953.06738-.03076.02393-.01178.04968-.01855.07245-.03308l2.54297-1.64258c.32812-.21289.42285-.65137.21094-.98047-.21289-.3291-.65039-.4209-.98047-.21094l-1.27692.82544c.6394-2.67438,3.04327-4.67114,5.91071-4.67114,3.35449,0,6.08398,2.72949,6.08398,6.08398,0,2.10352-1.06348,4.0293-2.84668,5.15137-.33105.20801-.43066.64648-.22168.97754.13477.21387.36523.33105.60059.33105.12891,0,.25977-.03516.37695-.10938,2.19629-1.38379,3.50879-3.75781,3.50879-6.35059,0-4.13672-3.36523-7.50195-7.50195-7.50195Z" fill="#currentColor"/></svg>